<svg width="43" height="43" viewBox="0 0 43 43" fill="none" xmlns="http://www.w3.org/2000/svg">
<path d="M10.5893 24.0605C10.9217 24.0644 11.2528 24.1908 11.5122 24.4563L21.0924 34.2647L30.9008 24.6845C31.4143 24.183 32.2542 24.1929 32.7557 24.7063C33.2572 25.2197 33.2473 26.0597 32.7339 26.5612L21.9871 37.0579C21.4737 37.5594 20.6337 37.5495 20.1323 37.0361L9.63546 26.2894C9.13397 25.776 9.14385 24.936 9.65729 24.4345C9.90536 24.1749 10.2568 24.0565 10.5893 24.0605Z" fill="#555555"/>
<path d="M21.4361 5.05929C22.1535 5.06773 22.7415 5.66969 22.733 6.38714L22.3865 35.8376C22.3781 36.5551 21.7761 37.143 21.0587 37.1346C20.3412 37.1261 19.7532 36.5242 19.7617 35.8067L20.1082 6.35626C20.1167 5.63881 20.7186 5.05085 21.4361 5.05929Z" fill="#555555"/>
</svg>
