<svg width="48" height="24" viewBox="0 0 48 24" fill="none" xmlns="http://www.w3.org/2000/svg">
<path d="M15.0003 20.6695C14.8103 20.6695 14.6203 20.5995 14.4703 20.4495L7.95027 13.9295C6.89027 12.8695 6.89027 11.1295 7.95027 10.0695L14.4703 3.54953C14.7603 3.25953 15.2403 3.25953 15.5303 3.54953C15.8203 3.83953 15.8203 4.31953 15.5303 4.60953L9.01027 11.1295C8.53027 11.6095 8.53027 12.3895 9.01027 12.8695L15.5303 19.3895C15.8203 19.6795 15.8203 20.1595 15.5303 20.4495C15.3803 20.5895 15.1903 20.6695 15.0003 20.6695Z" fill="#9E9E9E"/>
<path d="M32.9096 20.6695C32.7196 20.6695 32.5296 20.5995 32.3796 20.4495C32.0896 20.1595 32.0896 19.6795 32.3796 19.3895L38.8996 12.8695C39.3796 12.3895 39.3796 11.6095 38.8996 11.1295L32.3796 4.60953C32.0896 4.31953 32.0896 3.83953 32.3796 3.54953C32.6696 3.25953 33.1496 3.25953 33.4396 3.54953L39.9596 10.0695C40.4696 10.5795 40.7596 11.2695 40.7596 11.9995C40.7596 12.7295 40.4796 13.4195 39.9596 13.9295L33.4396 20.4495C33.2896 20.5895 33.0996 20.6695 32.9096 20.6695Z" fill="#9E9E9E"/>
</svg>
