<svg width="56" height="56" viewBox="0 0 56 56" fill="none" xmlns="http://www.w3.org/2000/svg">
<path d="M27.93 4.66675C15.05 4.66675 4.59668 15.1201 4.59668 28.0001C4.59668 40.8801 15.05 51.3334 27.93 51.3334C40.81 51.3334 51.2633 40.8801 51.2633 28.0001C51.2633 15.1201 40.8333 4.66675 27.93 4.66675ZM34.93 33.2034L28.1633 37.1001C27.3233 37.5901 26.39 37.8234 25.48 37.8234C24.5467 37.8234 23.6367 37.5901 22.7967 37.1001C21.1167 36.1201 20.1133 34.3934 20.1133 32.4334V24.6167C20.1133 22.6801 21.1167 20.9301 22.7967 19.9501C24.4767 18.9701 26.4833 18.9701 28.1867 19.9501L34.9533 23.8467C36.6333 24.8267 37.6367 26.5534 37.6367 28.5134C37.6367 30.4734 36.6333 32.2234 34.93 33.2034Z" fill="white"/>
</svg>
